<svg id="SvgjsSvg1013" width="288" height="288" xmlns="http://www.w3.org/2000/svg" version="1.1" xmlns:xlink="http://www.w3.org/1999/xlink" xmlns:svgjs="http://svgjs.com/svgjs"><defs id="SvgjsDefs1014"></defs><g id="SvgjsG1015"><svg xmlns="http://www.w3.org/2000/svg" width="288" height="288" version="1.0" viewBox="0 0 1600 1600"><g transform="matrix(.1 0 0 -.1 0 1600)" fill="#ffffff" class="color000 svgShape"><path d="M13823 15981 c-77 -21 -133 -47 -203 -94 -71 -47 -105 -83 -213 -222-601 -774 -1456 -1610 -2282 -2231 -593 -447 -1131 -783 -1750 -1094 -1196
-602 -2368 -923 -3610 -990 -118 -6 -1020 -10 -2393 -10 -1488 0 -2234 -3
-2300 -11 -542 -59 -964 -453 -1057 -986 -23 -131 -22 -3228 0 -3359 72 -410
363 -762 752 -909 37 -15 104 -36 148 -48 l80 -21 2340 -6 c2303 -7 2406 -8
2760 -40 1834 -167 3645 -945 5311 -2281 752 -604 1517 -1373 2011 -2024 142
-187 264 -272 446 -309 342 -71 664 118 781 458 l21 61 3 2733 2 2732 53 0
c148 0 361 56 532 139 394 193 669 566 734 998 16 104 13 323 -5 428 -71 415
-342 778 -723 969 -153 78 -378 136 -523 136 l-68 0 -2 2733 -3 2732 -28 80
c-38 108 -88 187 -167 265 -77 76 -150 121 -252 157 -101 36 -289 42 -395 14z
m-493 -7318 l0 -4896 -122 119 c-295 286 -627 578 -993 870 -1711 1367 -3610
2221 -5530 2488 -212 29 -564 66 -635 66 l-50 0 0 1353 0 1354 143 12 c961 81
1898 299 2822 656 1484 574 2904 1491 4175 2698 102 97 186 176 188 176 1 1 2
-2203 2 -4896z" fill="#ffffff" class="color000 svgShape"></path><path d="M1330 5002 l0 -339 129 -269 c370 -775 677 -1539 915 -2275 181 -561
267 -933 286 -1235 6 -83 19 -184 29 -226 75 -294 298 -525 606 -629 l70 -24
945 -3 c654 -2 965 1 1010 8 320 54 534 245 610 544 37 146 16 429 -46 629
-101 323 -292 577 -619 825 -190 144 -309 248 -440 383 -551 571 -911 1375
-1044 2339 -22 158 -41 398 -41 528 l0 82 -1205 0 -1205 0 0 -338z" fill="#ffffff" class="color000 svgShape"></path></g></svg></g></svg>